# xmcd
#
# Track frame offsets:
#	187
#	20587
#	40087
#	63487
#	92587
#	109162
#	126037
#	145237
#	166462
#	183412
#	207487
#	228112
#	246187
#	263362
#	278587
#	295837
#
# Disc length: 4205 seconds
#
# Revision: 1
# Processed by: cddbd v1.5.1PL0 Copyright (c) Steve Scherf et al.
# Submitted via: CDex 1.50Beta5
#
DISCID=de106b10
DTITLE=Various Artist - 谷村/小椋/来生/堀内
DYEAR=1900
DGENRE=Pop
TTITLE0=谷村新司/昴
TTITLE1=谷村新司/22歳
TTITLE2=谷村新司/アゲインスト
TTITLE3=谷村新司/群青
TTITLE4=小椋佳/俺たちの旅
TTITLE5=小椋佳/ただお前がいい
TTITLE6=小椋佳/君の声聞けば
TTITLE7=小椋佳/愛燦燦
TTITLE8=来生たかお/浅い夢
TTITLE9=来生たかお/Goodbye Day
TTITLE10=来生たかお/永遠なる序章
TTITLE11=来生たかお/セカンドラブ
TTITLE12=堀内孝雄/夢の道草
TTITLE13=堀内孝雄/南回帰線
TTITLE14=堀内孝雄/恋歌綴り
TTITLE15=堀内孝雄/愛しき日々
EXTD=
EXTT0=
EXTT1=
EXTT2=
EXTT3=
EXTT4=
EXTT5=
EXTT6=
EXTT7=
EXTT8=
EXTT9=
EXTT10=
EXTT11=
EXTT12=
EXTT13=
EXTT14=
EXTT15=
PLAYORDER=
